<svg xmlns="http://www.w3.org/2000/svg" viewBox="0 0 96 96" role="img" aria-label="hwp_palette — 팔레트에 눌려 휜 붓이 물감을 찍는다">
  <defs>
    <radialGradient id="bg" cx="50%" cy="58%" r="73%">
      <stop offset="0%" stop-color="#23366b"/><stop offset="100%" stop-color="#0b1128"/>
    </radialGradient>
    <linearGradient id="fer" x1="45.25" y1="30.85" x2="52.75" y2="37.15" gradientUnits="userSpaceOnUse">
      <stop offset="0" stop-color="#eef3fa"/><stop offset="0.4" stop-color="#ffffff"/>
      <stop offset="0.6" stop-color="#bcc7d9"/><stop offset="1" stop-color="#828fa5"/>
    </linearGradient>
    <clipPath id="clip"><rect width="96" height="96" rx="20"/></clipPath>
    <clipPath id="bcl"><path d="M46.7,32.07L47.1,31.91L47.52,31.76L47.93,31.62L48.35,31.49L48.77,31.35L49.2,31.22L49.62,31.08L50.05,30.95L50.48,30.82L50.91,30.69L51.34,30.55L51.77,30.41L52.2,30.28L52.63,30.14L53.06,29.99L53.49,29.85L53.92,29.7L54.35,29.54L54.77,29.39L55.19,29.22L55.62,29.06L56.03,28.88L56.45,28.71L56.86,28.52L57.27,28.33L57.68,28.14L58.08,27.93L58.47,27.72L58.86,27.51L59.25,27.29L59.63,27.05L60,26.82L60.37,26.57L60.73,26.32L61.09,26.06L61.44,25.79L61.78,25.51L62.11,25.23L62.44,24.94L62.76,24.64L63.08,24.34L63.38,24.03L63.68,23.71L63.97,23.38L64.25,23.05L64.53,22.71L64.8,22.37L65.06,22.02L58.01,16.11L57.75,16.38L57.49,16.65L57.23,16.92L56.98,17.2L56.73,17.49L56.48,17.77L56.24,18.06L56,18.35L55.76,18.65L55.53,18.95L55.3,19.25L55.08,19.56L54.85,19.87L54.63,20.19L54.42,20.51L54.2,20.84L53.99,21.17L53.77,21.5L53.56,21.84L53.35,22.18L53.15,22.52L52.94,22.87L52.73,23.22L52.52,23.58L52.32,23.93L52.11,24.29L51.9,24.65L51.69,25.02L51.47,25.38L51.26,25.75L51.04,26.11L50.82,26.48L50.6,26.85L50.37,27.22L50.14,27.58L49.91,27.95L49.67,28.31L49.43,28.67L49.19,29.03L48.93,29.39L48.68,29.74L48.42,30.1L48.15,30.44L47.87,30.78L47.59,31.12L47.31,31.45L47.01,31.77L46.7,32.07Z"/></clipPath>
    <clipPath id="hcl"><path d="M61.69,11.49L65.86,7.05L69.98,2.55L74.1,-1.93L78.24,-6.4L82.42,-10.85L86.62,-15.27L90.84,-19.68L95.07,-24.07L98.19,-21.46L94.6,-16.52L90.99,-11.6L87.37,-6.7L83.71,-1.82L80.03,3.04L76.32,7.88L72.62,12.71L68.97,17.6Z"/></clipPath>
  </defs>
  <rect width="96" height="96" rx="20" fill="url(#bg)"/>
  <g clip-path="url(#clip)">
    <ellipse cx="47" cy="52" rx="37" ry="29" fill="#f5f8ff" transform="rotate(-3.4 47 52)"/>
    <ellipse cx="30" cy="63" rx="6" ry="4.8" fill="#16223f" transform="rotate(-14 30 63)"/>
    <g font-family="'Segoe UI','Malgun Gothic',Arial,sans-serif" font-size="13" font-weight="700"
       text-anchor="middle" dominant-baseline="central" fill="#0b1128">
      <circle cx="25" cy="44" r="9.5" fill="#4c9dff"/><text x="25" y="45">h</text>
      <circle cx="47" cy="36" r="9.5" fill="#4c9dff"/><text x="47" y="37">w</text>
      <circle cx="69" cy="44" r="9.5" fill="#4c9dff"/><text x="69" y="45">p</text>
    </g>
    <!-- 붓털: 중심선이 bend(t)=-B(1-t/BL)^2 로 휜다. 팔레트에 눌려 활처럼 굽은 모습. -->
    <path d="M46.7,32.07L47.1,31.91L47.52,31.76L47.93,31.62L48.35,31.49L48.77,31.35L49.2,31.22L49.62,31.08L50.05,30.95L50.48,30.82L50.91,30.69L51.34,30.55L51.77,30.41L52.2,30.28L52.63,30.14L53.06,29.99L53.49,29.85L53.92,29.7L54.35,29.54L54.77,29.39L55.19,29.22L55.62,29.06L56.03,28.88L56.45,28.71L56.86,28.52L57.27,28.33L57.68,28.14L58.08,27.93L58.47,27.72L58.86,27.51L59.25,27.29L59.63,27.05L60,26.82L60.37,26.57L60.73,26.32L61.09,26.06L61.44,25.79L61.78,25.51L62.11,25.23L62.44,24.94L62.76,24.64L63.08,24.34L63.38,24.03L63.68,23.71L63.97,23.38L64.25,23.05L64.53,22.71L64.8,22.37L65.06,22.02L58.01,16.11L57.75,16.38L57.49,16.65L57.23,16.92L56.98,17.2L56.73,17.49L56.48,17.77L56.24,18.06L56,18.35L55.76,18.65L55.53,18.95L55.3,19.25L55.08,19.56L54.85,19.87L54.63,20.19L54.42,20.51L54.2,20.84L53.99,21.17L53.77,21.5L53.56,21.84L53.35,22.18L53.15,22.52L52.94,22.87L52.73,23.22L52.52,23.58L52.32,23.93L52.11,24.29L51.9,24.65L51.69,25.02L51.47,25.38L51.26,25.75L51.04,26.11L50.82,26.48L50.6,26.85L50.37,27.22L50.14,27.58L49.91,27.95L49.67,28.31L49.43,28.67L49.19,29.03L48.93,29.39L48.68,29.74L48.42,30.1L48.15,30.44L47.87,30.78L47.59,31.12L47.31,31.45L47.01,31.77L46.7,32.07Z" fill="#333e57"/>
    <g clip-path="url(#bcl)">
      <path d="M46.7,32.07L47.03,31.8L47.35,31.51L47.66,31.22L47.97,30.92L48.27,30.62L48.57,30.32L48.87,30.01L49.16,29.7L49.44,29.39L49.73,29.08L50.01,28.76L50.28,28.44L50.56,28.12L50.83,27.8L51.09,27.48L51.36,27.15L51.62,26.83L51.88,26.51L52.13,26.18L52.39,25.86L52.64,25.53L52.89,25.21L53.14,24.89L53.39,24.56L53.64,24.24L53.89,23.92L54.13,23.6L54.38,23.29L54.62,22.97L54.87,22.66L55.11,22.34L55.36,22.03L55.61,21.72L55.85,21.42L56.1,21.11L56.35,20.81L56.6,20.51L56.85,20.21L57.1,19.91L57.35,19.61L57.61,19.32L57.86,19.02L58.12,18.73L58.38,18.44L58.63,18.15L58.9,17.86L59.16,17.57L59.42,17.29" fill="none" stroke="rgba(255,255,255,0.16)" stroke-width="0.38"/>
      <path d="M46.7,32.07L47.05,31.82L47.39,31.57L47.73,31.32L48.06,31.06L48.39,30.8L48.72,30.53L49.05,30.27L49.37,30L49.69,29.73L50.01,29.46L50.32,29.18L50.64,28.91L50.95,28.63L51.25,28.35L51.56,28.07L51.86,27.79L52.16,27.51L52.46,27.23L52.76,26.94L53.05,26.66L53.35,26.37L53.64,26.08L53.93,25.79L54.22,25.5L54.5,25.21L54.79,24.92L55.07,24.63L55.35,24.34L55.63,24.05L55.91,23.76L56.19,23.46L56.46,23.17L56.74,22.88L57.01,22.58L57.29,22.29L57.56,21.99L57.83,21.7L58.1,21.4L58.37,21.1L58.64,20.81L58.91,20.51L59.17,20.21L59.44,19.91L59.7,19.61L59.97,19.31L60.23,19.01L60.5,18.71L60.76,18.41" fill="none" stroke="rgba(255,255,255,0.16)" stroke-width="0.38"/>
      <path d="M46.7,32.07L47.07,31.86L47.43,31.64L47.8,31.43L48.17,31.21L48.53,31L48.89,30.78L49.26,30.56L49.62,30.34L49.98,30.12L50.33,29.9L50.69,29.68L51.05,29.45L51.4,29.23L51.75,29L52.1,28.77L52.45,28.53L52.8,28.3L53.14,28.06L53.49,27.82L53.83,27.58L54.17,27.34L54.5,27.09L54.84,26.84L55.17,26.59L55.5,26.34L55.83,26.08L56.15,25.82L56.48,25.56L56.8,25.3L57.11,25.03L57.43,24.76L57.74,24.48L58.05,24.21L58.35,23.93L58.66,23.65L58.96,23.36L59.25,23.07L59.55,22.78L59.84,22.49L60.13,22.19L60.41,21.89L60.69,21.59L60.97,21.28L61.24,20.97L61.51,20.66L61.78,20.35L62.05,20.03L62.31,19.71" fill="none" stroke="rgba(255,255,255,0.16)" stroke-width="0.38"/>
      <path d="M46.7,32.07L47.09,31.88L47.47,31.7L47.87,31.52L48.26,31.35L48.65,31.17L49.04,30.99L49.44,30.82L49.83,30.64L50.22,30.46L50.61,30.28L51.01,30.1L51.4,29.92L51.79,29.74L52.18,29.55L52.57,29.36L52.96,29.17L53.34,28.98L53.73,28.78L54.11,28.58L54.49,28.38L54.87,28.18L55.25,27.97L55.62,27.75L55.99,27.53L56.36,27.31L56.73,27.08L57.09,26.85L57.45,26.62L57.8,26.37L58.15,26.13L58.5,25.88L58.84,25.62L59.18,25.36L59.51,25.09L59.84,24.82L60.17,24.54L60.48,24.26L60.8,23.98L61.11,23.68L61.41,23.39L61.71,23.08L62,22.78L62.29,22.46L62.57,22.15L62.85,21.83L63.12,21.5L63.39,21.17L63.65,20.84" fill="none" stroke="rgba(255,255,255,0.16)" stroke-width="0.38"/>
      <path d="M46.7,32.07L46.92,31.98L47.14,31.9L47.36,31.82L47.58,31.74L47.8,31.67L48.03,31.59L48.26,31.52L48.48,31.44L48.71,31.37L48.94,31.3L49.17,31.23L49.4,31.16L49.62,31.08L49.85,31.01L50.09,30.94L50.32,30.87L50.55,30.8L50.78,30.73L51.01,30.65L51.24,30.58L51.47,30.51L51.7,30.44L51.94,30.36L52.17,30.29L52.4,30.21L52.63,30.14L52.86,30.06L53.09,29.98L53.33,29.9L53.56,29.82L53.79,29.74L54.02,29.66L54.25,29.58L54.48,29.5L54.71,29.41L54.93,29.32L55.16,29.24L55.39,29.15L55.62,29.06L55.84,28.96L56.07,28.87L56.29,28.78L56.51,28.68L56.74,28.58L56.96,28.48L57.18,28.38L57.4,28.27L57.61,28.17L52.91,22.92L52.79,23.11L52.68,23.3L52.57,23.49L52.46,23.69L52.35,23.88L52.24,24.07L52.12,24.26L52.01,24.46L51.9,24.65L51.78,24.85L51.67,25.04L51.56,25.24L51.44,25.44L51.33,25.63L51.21,25.83L51.09,26.03L50.98,26.23L50.86,26.42L50.74,26.62L50.62,26.82L50.5,27.02L50.37,27.22L50.25,27.41L50.13,27.61L50,27.81L49.88,28L49.75,28.2L49.62,28.4L49.49,28.59L49.36,28.78L49.22,28.98L49.09,29.17L48.95,29.36L48.82,29.55L48.68,29.74L48.54,29.93L48.4,30.12L48.25,30.31L48.11,30.49L47.96,30.68L47.81,30.86L47.66,31.04L47.51,31.22L47.35,31.4L47.19,31.57L47.03,31.74L46.87,31.91L46.7,32.07Z" fill="#4c9dff"/>
    </g>
    <path d="M57.2,16.6L57.78,15.91L58.36,15.22L58.94,14.53L59.52,13.84L60.09,13.15L60.67,12.47L61.25,11.78L61.83,11.09L69.34,17.39L68.76,18.08L68.18,18.76L67.6,19.45L67.02,20.14L66.44,20.83L65.87,21.52L65.29,22.21L64.71,22.9Z" fill="url(#fer)"/>
    <path d="M66.25 21.06L58.74 14.76" stroke="rgba(20,30,50,0.38)" stroke-width="0.45"/>
    <path d="M67.92 19.07L60.42 12.77" stroke="rgba(20,30,50,0.38)" stroke-width="0.45"/>
    <path d="M61.69,11.49L65.86,7.05L69.98,2.55L74.1,-1.93L78.24,-6.4L82.42,-10.85L86.62,-15.27L90.84,-19.68L95.07,-24.07L98.19,-21.46L94.6,-16.52L90.99,-11.6L87.37,-6.7L83.71,-1.82L80.03,3.04L76.32,7.88L72.62,12.71L68.97,17.6Z" fill="#c99a63"/>
    <circle cx="96.63" cy="-22.76" r="1.9" fill="#c99a63"/>
    <g clip-path="url(#hcl)">
      <path d="M61.87 11.64L96.98 -24.95L97.85 -24.22L64.05 13.47Z" fill="rgba(255,238,205,0.9)"/>
      <path d="M68.97 17.6L99.02 -23.24L98.14 -23.98L67.15 16.07Z" fill="rgba(85,52,22,0.4)"/>
    </g>
  </g>
</svg>