<svg xmlns="http://www.w3.org/2000/svg" viewBox="0 0 96 96" role="img" aria-label="hwp_palette — 화가 팔레트">
  <defs>
    <radialGradient id="bgC" cx="50%" cy="60%" r="72%">
      <stop offset="0%" stop-color="#23366b"/>
      <stop offset="66%" stop-color="#0b1128"/>
    </radialGradient>
  </defs>
  <rect width="96" height="96" rx="20" fill="url(#bgC)"/>

  <!-- 이름 그대로의 화가 팔레트. 물감 자리를 블럭(사각)으로 바꿔 문서 도구임을 암시. -->
  <path d="M48 22
           C 32 22 20 33 20 47
           C 20 60 30 69 43 69
           C 48 69 49 73 47 75
           C 45 77 47 74 52 74
           C 66 74 76 62 76 47
           C 76 33 64 22 48 22 Z"
        fill="#f5f8ff"/>
  <rect x="32" y="35" width="10" height="10" rx="2.5" fill="#4c9dff"/>
  <rect x="47" y="32" width="10" height="10" rx="2.5" fill="#0b1128"/>
  <rect x="60" y="41" width="10" height="10" rx="2.5" fill="#4c9dff"/>
  <rect x="36" y="51" width="10" height="10" rx="2.5" fill="#0b1128"/>
</svg>
